<svg width="12" height="12" viewBox="0 0 12 12" fill="none" xmlns="http://www.w3.org/2000/svg">
<circle cx="6" cy="6" r="5.5" fill="white" stroke="#B40FE7"/>
<mask id="path-2-inside-1_1373_3402" fill="white">
<path d="M7.73661 4.26098C7.59697 4.12134 7.37057 4.12134 7.23092 4.26098L5.76442 5.72749L4.29792 4.26099C4.15828 4.12135 3.93188 4.12134 3.79223 4.26099C3.65259 4.40064 3.65259 4.62704 3.79223 4.76668L5.25873 6.23317L3.79224 7.69967C3.6526 7.83931 3.65259 8.06571 3.79224 8.20536C3.93188 8.34501 4.15829 8.345 4.29793 8.20536L5.76442 6.73886L7.23092 8.20537C7.37056 8.34501 7.59696 8.34501 7.73661 8.20537C7.87625 8.06572 7.87625 7.83931 7.73661 7.69967L6.27011 6.23317L7.73661 4.76667C7.87625 4.62703 7.87626 4.40063 7.73661 4.26098Z"/>
</mask>
<path d="M7.73661 4.26098C7.59697 4.12134 7.37057 4.12134 7.23092 4.26098L5.76442 5.72749L4.29792 4.26099C4.15828 4.12135 3.93188 4.12134 3.79223 4.26099C3.65259 4.40064 3.65259 4.62704 3.79223 4.76668L5.25873 6.23317L3.79224 7.69967C3.6526 7.83931 3.65259 8.06571 3.79224 8.20536C3.93188 8.34501 4.15829 8.345 4.29793 8.20536L5.76442 6.73886L7.23092 8.20537C7.37056 8.34501 7.59696 8.34501 7.73661 8.20537C7.87625 8.06572 7.87625 7.83931 7.73661 7.69967L6.27011 6.23317L7.73661 4.76667C7.87625 4.62703 7.87626 4.40063 7.73661 4.26098Z" fill="white"/>
<path d="M7.73661 4.26098L7.0295 4.96808L7.0295 4.96809L7.73661 4.26098ZM7.23092 4.26098L6.52382 3.55387L6.52382 3.55388L7.23092 4.26098ZM5.76442 5.72749L5.05731 6.43459L5.76442 7.1417L6.47153 6.43459L5.76442 5.72749ZM4.29792 4.26099L3.59081 4.96809L3.59081 4.96809L4.29792 4.26099ZM3.79223 4.26099L3.08512 3.55388L3.08512 3.55389L3.79223 4.26099ZM3.79223 4.76668L4.49934 4.05957L4.49934 4.05957L3.79223 4.76668ZM5.25873 6.23317L5.96584 6.94028L6.67295 6.23317L5.96584 5.52607L5.25873 6.23317ZM3.79224 7.69967L4.49934 8.40678L4.49934 8.40677L3.79224 7.69967ZM3.79224 8.20536L3.08513 8.91246L3.08513 8.91246L3.79224 8.20536ZM4.29793 8.20536L5.00503 8.91247L5.00504 8.91247L4.29793 8.20536ZM5.76442 6.73886L6.47153 6.03176L5.76442 5.32464L5.05731 6.03176L5.76442 6.73886ZM7.23092 8.20537L6.52381 8.91247L6.52381 8.91247L7.23092 8.20537ZM7.73661 8.20537L8.4437 8.91249L8.44372 8.91247L7.73661 8.20537ZM7.73661 7.69967L7.0295 8.40678L7.0295 8.40678L7.73661 7.69967ZM6.27011 6.23317L5.563 5.52607L4.8559 6.23317L5.563 6.94028L6.27011 6.23317ZM7.73661 4.76667L7.02951 4.05957L7.02951 4.05957L7.73661 4.76667ZM8.44373 3.55388C7.91354 3.02369 7.05397 3.02373 6.52382 3.55387L7.93803 4.96809C7.68716 5.21896 7.2804 5.21899 7.0295 4.96808L8.44373 3.55388ZM6.52382 3.55388L5.05731 5.02038L6.47153 6.43459L7.93803 4.96809L6.52382 3.55388ZM6.47153 5.02038L5.00503 3.55388L3.59081 4.96809L5.05731 6.43459L6.47153 5.02038ZM5.00503 3.55388C4.47488 3.02373 3.61531 3.02369 3.08512 3.55388L4.49934 4.96809C4.24845 5.21899 3.84168 5.21896 3.59081 4.96809L5.00503 3.55388ZM3.08512 3.55389C2.55495 4.08406 2.55496 4.94363 3.08513 5.47379L4.49934 4.05957C4.75022 4.31045 4.75022 4.71721 4.49934 4.96809L3.08512 3.55389ZM3.08513 5.47379L4.55163 6.94028L5.96584 5.52607L4.49934 4.05957L3.08513 5.47379ZM4.55162 5.52607L3.08513 6.99256L4.49934 8.40677L5.96584 6.94028L4.55162 5.52607ZM3.08513 6.99256C2.55497 7.52272 2.55496 8.38228 3.08513 8.91246L4.49935 7.49826C4.75023 7.74914 4.75022 8.1559 4.49934 8.40678L3.08513 6.99256ZM3.08513 8.91246C3.61531 9.44266 4.47488 9.44262 5.00503 8.91247L3.59082 7.49825C3.84169 7.24739 4.24845 7.24736 4.49935 7.49826L3.08513 8.91246ZM5.00504 8.91247L6.47153 7.44597L5.05731 6.03176L3.59082 7.49825L5.00504 8.91247ZM5.05731 7.44597L6.52381 8.91247L7.93803 7.49826L6.47153 6.03176L5.05731 7.44597ZM6.52381 8.91247C7.05398 9.44265 7.91354 9.44263 8.4437 8.91249L7.02951 7.49825C7.28038 7.24739 7.68714 7.24737 7.93803 7.49826L6.52381 8.91247ZM8.44372 8.91247C8.97389 8.3823 8.97388 7.52273 8.44372 6.99257L7.0295 8.40678C6.77862 8.1559 6.77862 7.74914 7.0295 7.49827L8.44372 8.91247ZM8.44372 6.99257L6.97722 5.52607L5.563 6.94028L7.0295 8.40678L8.44372 6.99257ZM6.97722 6.94028L8.44372 5.47378L7.02951 4.05957L5.563 5.52607L6.97722 6.94028ZM8.44372 5.47378C8.97388 4.94362 8.9739 4.08406 8.44372 3.55388L7.0295 4.96809C6.77862 4.71721 6.77863 4.31044 7.02951 4.05957L8.44372 5.47378Z" fill="#B40FE7" mask="url(#path-2-inside-1_1373_3402)"/>
</svg>
