<svg width="174" height="114" viewBox="0 0 174 114" fill="none" xmlns="http://www.w3.org/2000/svg">
<g filter="url(#filter0_d_1068_14243)">
<path d="M140.036 89.3097C148.148 94.7465 143.8 107.643 133.856 107.643L16.4283 107.643C11.0469 107.643 6.7891 103.399 6.78909 98.0356L6.78908 19.3282C6.78908 11.2247 15.9763 6.15703 22.6084 10.6023L140.036 89.3097Z" fill="black"/>
</g>
<path d="M23.732 74.8614C23.0787 74.8614 22.472 74.74 21.912 74.4974C21.352 74.2454 20.876 73.9047 20.484 73.4754C20.092 73.046 19.8027 72.5514 19.616 71.9914L21.016 71.4034C21.268 72.0474 21.6367 72.542 22.122 72.8874C22.6073 73.2327 23.1673 73.4054 23.802 73.4054C24.1753 73.4054 24.502 73.3494 24.782 73.2374C25.062 73.116 25.2767 72.948 25.426 72.7334C25.5847 72.5187 25.664 72.2714 25.664 71.9914C25.664 71.6087 25.5567 71.3054 25.342 71.0814C25.1273 70.8574 24.81 70.68 24.39 70.5494L22.43 69.9334C21.646 69.6907 21.0487 69.322 20.638 68.8274C20.2273 68.3234 20.022 67.7354 20.022 67.0634C20.022 66.4754 20.1667 65.962 20.456 65.5234C20.7453 65.0754 21.142 64.7254 21.646 64.4734C22.1593 64.2214 22.7427 64.0954 23.396 64.0954C24.0213 64.0954 24.5907 64.2074 25.104 64.4314C25.6173 64.646 26.056 64.9447 26.42 65.3274C26.7933 65.71 27.064 66.1534 27.232 66.6574L25.86 67.2594C25.6547 66.7087 25.3327 66.284 24.894 65.9854C24.4647 65.6867 23.9653 65.5374 23.396 65.5374C23.0507 65.5374 22.7473 65.598 22.486 65.7194C22.2247 65.8314 22.0193 65.9994 21.87 66.2234C21.73 66.438 21.66 66.69 21.66 66.9794C21.66 67.3154 21.7673 67.614 21.982 67.8754C22.1967 68.1367 22.5233 68.3327 22.962 68.4634L24.782 69.0374C25.6127 69.2894 26.238 69.6534 26.658 70.1294C27.078 70.596 27.288 71.1794 27.288 71.8794C27.288 72.458 27.134 72.9714 26.826 73.4194C26.5273 73.8674 26.112 74.222 25.58 74.4834C25.048 74.7354 24.432 74.8614 23.732 74.8614ZM31.1897 74.8614C30.6764 74.8614 30.2237 74.7727 29.8317 74.5954C29.4491 74.4087 29.1504 74.1567 28.9357 73.8394C28.7211 73.5127 28.6137 73.13 28.6137 72.6914C28.6137 72.2807 28.7024 71.912 28.8797 71.5854C29.0664 71.2587 29.3511 70.9834 29.7337 70.7594C30.1164 70.5354 30.5971 70.3767 31.1757 70.2834L33.8077 69.8494V71.0954L31.4837 71.5014C31.0637 71.576 30.7557 71.7114 30.5597 71.9074C30.3637 72.094 30.2657 72.3367 30.2657 72.6354C30.2657 72.9247 30.3731 73.1627 30.5877 73.3494C30.8117 73.5267 31.0964 73.6154 31.4417 73.6154C31.8711 73.6154 32.2444 73.522 32.5617 73.3354C32.8884 73.1487 33.1404 72.9014 33.3177 72.5934C33.4951 72.276 33.5837 71.926 33.5837 71.5434V69.5974C33.5837 69.224 33.4437 68.9207 33.1637 68.6874C32.8931 68.4447 32.5291 68.3234 32.0717 68.3234C31.6517 68.3234 31.2831 68.4354 30.9657 68.6594C30.6577 68.874 30.4291 69.154 30.2797 69.4994L28.9637 68.8414C29.1037 68.468 29.3324 68.1414 29.6497 67.8614C29.9671 67.572 30.3357 67.348 30.7557 67.1894C31.1851 67.0307 31.6377 66.9514 32.1137 66.9514C32.7111 66.9514 33.2384 67.0634 33.6957 67.2874C34.1624 67.5114 34.5217 67.824 34.7737 68.2254C35.0351 68.6174 35.1657 69.0747 35.1657 69.5974V74.6934H33.6537V73.3214L33.9757 73.3634C33.7984 73.6714 33.5697 73.9374 33.2897 74.1614C33.0191 74.3854 32.7064 74.558 32.3517 74.6794C32.0064 74.8007 31.6191 74.8614 31.1897 74.8614ZM39.1468 74.6934L36.1788 67.1194H37.9008L40.1828 73.2934H39.5528L41.8348 67.1194H43.5708L40.5888 74.6934H39.1468ZM48.1353 74.8614C47.3793 74.8614 46.7073 74.6887 46.1193 74.3434C45.5406 73.9887 45.088 73.5127 44.7613 72.9154C44.4346 72.3087 44.2713 71.632 44.2713 70.8854C44.2713 70.12 44.4346 69.4434 44.7613 68.8554C45.0973 68.2674 45.5453 67.8054 46.1053 67.4694C46.6653 67.124 47.3 66.9514 48.0093 66.9514C48.5786 66.9514 49.0873 67.0494 49.5353 67.2454C49.9833 67.4414 50.3613 67.712 50.6693 68.0574C50.9773 68.3934 51.2106 68.7807 51.3693 69.2194C51.5373 69.658 51.6213 70.1247 51.6213 70.6194C51.6213 70.7407 51.6166 70.8667 51.6073 70.9974C51.598 71.128 51.5793 71.2494 51.5513 71.3614H45.5173V70.1014H50.6553L49.8993 70.6754C49.9926 70.218 49.96 69.812 49.8013 69.4574C49.652 69.0934 49.4186 68.8087 49.1013 68.6034C48.7933 68.3887 48.4293 68.2814 48.0093 68.2814C47.5893 68.2814 47.216 68.3887 46.8893 68.6034C46.5626 68.8087 46.3106 69.1074 46.1333 69.4994C45.956 69.882 45.886 70.3487 45.9233 70.8994C45.8766 71.4127 45.9466 71.8607 46.1333 72.2434C46.3293 72.626 46.6 72.9247 46.9453 73.1394C47.3 73.354 47.7013 73.4614 48.1493 73.4614C48.6066 73.4614 48.994 73.3587 49.3113 73.1534C49.638 72.948 49.8946 72.682 50.0813 72.3554L51.3693 72.9854C51.22 73.34 50.9866 73.662 50.6693 73.9514C50.3613 74.2314 49.988 74.4554 49.5493 74.6234C49.12 74.782 48.6486 74.8614 48.1353 74.8614ZM55.9065 74.6934V64.2634H59.3225C60.4052 64.2634 61.3432 64.4827 62.1365 64.9214C62.9392 65.3507 63.5598 65.9574 63.9985 66.7414C64.4372 67.5254 64.6565 68.4354 64.6565 69.4714C64.6565 70.498 64.4372 71.408 63.9985 72.2014C63.5598 72.9854 62.9392 73.5967 62.1365 74.0354C61.3432 74.474 60.4052 74.6934 59.3225 74.6934H55.9065ZM57.5585 73.2234H59.3505C60.0878 73.2234 60.7272 73.0694 61.2685 72.7614C61.8192 72.4534 62.2438 72.0194 62.5425 71.4594C62.8412 70.8994 62.9905 70.2367 62.9905 69.4714C62.9905 68.706 62.8365 68.048 62.5285 67.4974C62.2298 66.9374 61.8098 66.5034 61.2685 66.1954C60.7272 65.8874 60.0878 65.7334 59.3505 65.7334H57.5585V73.2234ZM66.1995 74.6934V67.1194H67.7115V68.6454L67.5715 68.4214C67.7395 67.9267 68.0101 67.572 68.3835 67.3574C68.7568 67.1334 69.2048 67.0214 69.7275 67.0214H70.1895V68.4634H69.5315C69.0088 68.4634 68.5841 68.6267 68.2575 68.9534C67.9401 69.2707 67.7815 69.728 67.7815 70.3254V74.6934H66.1995ZM73.6097 74.8614C73.0964 74.8614 72.6437 74.7727 72.2517 74.5954C71.8691 74.4087 71.5704 74.1567 71.3557 73.8394C71.1411 73.5127 71.0337 73.13 71.0337 72.6914C71.0337 72.2807 71.1224 71.912 71.2997 71.5854C71.4864 71.2587 71.7711 70.9834 72.1537 70.7594C72.5364 70.5354 73.0171 70.3767 73.5957 70.2834L76.2277 69.8494V71.0954L73.9037 71.5014C73.4837 71.576 73.1757 71.7114 72.9797 71.9074C72.7837 72.094 72.6857 72.3367 72.6857 72.6354C72.6857 72.9247 72.7931 73.1627 73.0077 73.3494C73.2317 73.5267 73.5164 73.6154 73.8617 73.6154C74.2911 73.6154 74.6644 73.522 74.9817 73.3354C75.3084 73.1487 75.5604 72.9014 75.7377 72.5934C75.9151 72.276 76.0037 71.926 76.0037 71.5434V69.5974C76.0037 69.224 75.8637 68.9207 75.5837 68.6874C75.3131 68.4447 74.9491 68.3234 74.4917 68.3234C74.0717 68.3234 73.7031 68.4354 73.3857 68.6594C73.0777 68.874 72.8491 69.154 72.6997 69.4994L71.3837 68.8414C71.5237 68.468 71.7524 68.1414 72.0697 67.8614C72.3871 67.572 72.7557 67.348 73.1757 67.1894C73.6051 67.0307 74.0577 66.9514 74.5337 66.9514C75.1311 66.9514 75.6584 67.0634 76.1157 67.2874C76.5824 67.5114 76.9417 67.824 77.1937 68.2254C77.4551 68.6174 77.5857 69.0747 77.5857 69.5974V74.6934H76.0737V73.3214L76.3957 73.3634C76.2184 73.6714 75.9897 73.9374 75.7097 74.1614C75.4391 74.3854 75.1264 74.558 74.7717 74.6794C74.4264 74.8007 74.0391 74.8614 73.6097 74.8614ZM80.2911 74.6934V68.5474H78.8911V67.1194H80.2911V66.7274C80.2911 66.158 80.4078 65.682 80.6411 65.2994C80.8745 64.9074 81.1965 64.6087 81.6071 64.4034C82.0271 64.198 82.5078 64.0954 83.0491 64.0954C83.1518 64.0954 83.2685 64.1047 83.3991 64.1234C83.5298 64.1327 83.6371 64.1467 83.7211 64.1654V65.5374C83.6465 65.5187 83.5625 65.5094 83.4691 65.5094C83.3758 65.5 83.3011 65.4954 83.2451 65.4954C82.8251 65.4954 82.4891 65.5934 82.2371 65.7894C81.9851 65.976 81.8591 66.2887 81.8591 66.7274V67.1194H83.5951V68.5474H81.8591V74.6934H80.2911ZM88.6894 74.7774C87.896 74.7774 87.28 74.5534 86.8414 74.1054C86.4027 73.6574 86.1834 73.0274 86.1834 72.2154V68.5474H84.8534V67.1194H85.0634C85.418 67.1194 85.6934 67.0167 85.8894 66.8114C86.0854 66.606 86.1834 66.326 86.1834 65.9714V65.3834H87.7654V67.1194H89.4874V68.5474H87.7654V72.1454C87.7654 72.4067 87.8074 72.6307 87.8914 72.8174C87.9754 72.9947 88.1107 73.1347 88.2974 73.2374C88.484 73.3307 88.7267 73.3774 89.0254 73.3774C89.1 73.3774 89.184 73.3727 89.2774 73.3634C89.3707 73.354 89.4594 73.3447 89.5434 73.3354V74.6934C89.4127 74.712 89.268 74.7307 89.1094 74.7494C88.9507 74.768 88.8107 74.7774 88.6894 74.7774Z" fill="white"/>
<defs>
<filter id="filter0_d_1068_14243" x="2.78906" y="6.94922" width="145.484" height="106.693" filterUnits="userSpaceOnUse" color-interpolation-filters="sRGB">
<feFlood flood-opacity="0" result="BackgroundImageFix"/>
<feColorMatrix in="SourceAlpha" type="matrix" values="0 0 0 0 0 0 0 0 0 0 0 0 0 0 0 0 0 0 127 0" result="hardAlpha"/>
<feOffset dy="2"/>
<feGaussianBlur stdDeviation="2"/>
<feComposite in2="hardAlpha" operator="out"/>
<feColorMatrix type="matrix" values="0 0 0 0 0 0 0 0 0 0 0 0 0 0 0 0 0 0 0.15 0"/>
<feBlend mode="normal" in2="BackgroundImageFix" result="effect1_dropShadow_1068_14243"/>
<feBlend mode="normal" in="SourceGraphic" in2="effect1_dropShadow_1068_14243" result="shape"/>
</filter>
</defs>
</svg>
