<svg width="18" height="18" viewBox="0 0 18 18" fill="none" xmlns="http://www.w3.org/2000/svg">
<g clip-path="url(#clip0_1421_9848)">
<path d="M7.41941 0.258077C7.20847 0.0365926 6.89206 -0.0477824 6.59675 0.0295614C6.30144 0.106905 6.07292 0.342452 5.99558 0.637765L5.44011 2.83503L3.26042 2.2198C2.96511 2.13542 2.6487 2.2198 2.43425 2.43425C2.2198 2.6487 2.13542 2.96511 2.2198 3.26042L2.83503 5.44011L0.637765 5.99909C0.342452 6.07292 0.110421 6.30495 0.0295614 6.60026C-0.051298 6.89558 0.0365926 7.20847 0.258077 7.41941L1.8823 9.00144L0.258077 10.5835C0.0365926 10.7944 -0.0477824 11.1108 0.0295614 11.4061C0.106905 11.7014 0.342452 11.93 0.637765 12.0073L2.83503 12.5628L2.2198 14.7425C2.13542 15.0378 2.2198 15.3542 2.43425 15.5686C2.6487 15.7831 2.96511 15.8675 3.26042 15.7831L5.44011 15.1678L5.99558 17.3651C6.06941 17.6604 6.30144 17.8925 6.59675 17.9733C6.89206 18.0542 7.20495 17.9663 7.41941 17.7483L9.00144 16.1241L10.5835 17.7483C10.7979 17.9663 11.1108 18.0542 11.4061 17.9733C11.7014 17.8925 11.93 17.6604 12.0073 17.3651L12.5628 15.1678L14.7425 15.7831C15.0378 15.8675 15.3542 15.7831 15.5686 15.5686C15.7831 15.3542 15.8675 15.0378 15.7831 14.7425L15.1678 12.5628L17.3651 12.0073C17.6604 11.9335 17.8925 11.7014 17.9733 11.4061C18.0542 11.1108 17.9663 10.7944 17.7483 10.5835L16.1241 9.00144L17.7483 7.41941C17.9663 7.20495 18.0542 6.89206 17.9733 6.59675C17.8925 6.30144 17.6604 6.07292 17.3651 5.99558L15.1678 5.44011L15.7831 3.26042C15.8675 2.96511 15.7831 2.6487 15.5686 2.43425C15.3542 2.2198 15.0378 2.13542 14.7425 2.2198L12.5628 2.83503L12.0038 0.637765C11.93 0.342452 11.6979 0.110421 11.4026 0.0295614C11.1073 -0.051298 10.7944 0.0365926 10.5835 0.258077L9.00144 1.8823L7.41941 0.258077Z" fill="white"/>
<g clip-path="url(#clip1_1421_9848)">
<path d="M6.4549 8.88951L6.45481 8.88943L6.4549 8.88951Z" fill="black" stroke="#970D98"/>
</g>
</g>
<defs>
<clipPath id="clip0_1421_9848">
<rect width="18" height="18" fill="white"/>
</clipPath>
<clipPath id="clip1_1421_9848">
<rect width="6" height="6" fill="white" transform="translate(6 6)"/>
</clipPath>
</defs>
</svg>
